<svg width="482" height="139" viewBox="0 0 482 139" fill="none" xmlns="http://www.w3.org/2000/svg">
<path d="M83.25 108H62.156L21.094 40.6406V108H0V5.625H21.094L62.226 73.125V5.625H83.25V108ZM97.172 69.2578C97.172 61.7109 98.625 54.9844 101.531 49.0781C104.437 43.1719 108.609 38.6016 114.047 35.3672C119.531 32.1328 125.883 30.5156 133.101 30.5156C143.367 30.5156 151.734 33.6563 158.203 39.9375C164.719 46.2188 168.351 54.75 169.101 65.5312L169.242 70.7344C169.242 82.4062 165.984 91.7812 159.469 98.8594C152.953 105.891 144.211 109.406 133.242 109.406C122.273 109.406 113.508 105.891 106.945 98.8594C100.43 91.8281 97.172 82.2656 97.172 70.1719V69.2578ZM117.492 70.7344C117.492 77.9531 118.851 83.4844 121.57 87.3281C124.289 91.125 128.18 93.0234 133.242 93.0234C138.164 93.0234 142.008 91.1484 144.773 87.3984C147.539 83.6016 148.922 77.5547 148.922 69.2578C148.922 62.1797 147.539 56.6953 144.773 52.8047C142.008 48.9141 138.117 46.9688 133.101 46.9688C128.133 46.9688 124.289 48.9141 121.57 52.8047C118.851 56.6484 117.492 62.625 117.492 70.7344ZM178.594 69.3984C178.594 57.5391 181.242 48.0938 186.539 41.0625C191.883 34.0312 199.172 30.5156 208.406 30.5156C215.812 30.5156 221.93 33.2812 226.758 38.8125V0H247.148V108H228.797L227.812 99.9141C222.75 106.242 216.234 109.406 208.266 109.406C199.312 109.406 192.117 105.891 186.68 98.8594C181.289 91.7812 178.594 81.9609 178.594 69.3984ZM198.914 70.875C198.914 78 200.156 83.4609 202.64 87.2578C205.125 91.0547 208.734 92.9531 213.469 92.9531C219.75 92.9531 224.18 90.3047 226.758 85.0078V54.9844C224.226 49.6875 219.844 47.0391 213.609 47.0391C203.812 47.0391 198.914 54.9844 198.914 70.875ZM297.914 109.406C286.758 109.406 277.664 105.984 270.633 99.1406C263.648 92.2969 260.156 83.1797 260.156 71.7891V69.8203C260.156 62.1797 261.633 55.3594 264.586 49.3594C267.539 43.3125 271.711 38.6719 277.101 35.4375C282.539 32.1562 288.726 30.5156 295.664 30.5156C306.07 30.5156 314.25 33.7969 320.203 40.3594C326.203 46.9219 329.203 56.2266 329.203 68.2734V76.5703H280.758C281.414 81.5391 283.383 85.5234 286.664 88.5234C289.992 91.5234 294.187 93.0234 299.25 93.0234C307.078 93.0234 313.195 90.1875 317.601 84.5156L327.586 95.6953C324.539 100.008 320.414 103.383 315.211 105.82C310.008 108.211 304.242 109.406 297.914 109.406ZM295.594 46.9688C291.562 46.9688 288.281 48.3281 285.75 51.0469C283.266 53.7656 281.672 57.6562 280.969 62.7188H309.234V61.1016C309.14 56.6016 307.922 53.1328 305.578 50.6953C303.234 48.2109 299.906 46.9688 295.594 46.9688ZM341.859 98.0156C341.859 94.7812 342.937 92.1562 345.094 90.1406C347.297 88.125 350.039 87.1172 353.32 87.1172C356.648 87.1172 359.39 88.125 361.547 90.1406C363.75 92.1562 364.851 94.7812 364.851 98.0156C364.851 101.203 363.773 103.805 361.617 105.82C359.461 107.789 356.695 108.773 353.32 108.773C349.992 108.773 347.25 107.789 345.094 105.82C342.937 103.805 341.859 101.203 341.859 98.0156ZM404.226 31.9219V112.148C404.226 120.539 402 127.055 397.547 131.695C393.094 136.383 386.672 138.727 378.281 138.727C374.766 138.727 371.414 138.328 368.226 137.531V121.43C370.664 121.852 372.797 122.062 374.625 122.062C380.766 122.062 383.836 118.805 383.836 112.289V31.9219H404.226ZM382.219 12.2344C382.219 9.1875 383.226 6.67969 385.242 4.71094C387.305 2.74219 390.094 1.75781 393.609 1.75781C397.125 1.75781 399.89 2.74219 401.906 4.71094C403.969 6.67969 405 9.1875 405 12.2344C405 15.3281 403.945 17.8594 401.836 19.8281C399.773 21.7969 397.031 22.7812 393.609 22.7812C390.187 22.7812 387.422 21.7969 385.312 19.8281C383.25 17.8594 382.219 15.3281 382.219 12.2344ZM461.32 86.9766C461.32 84.4922 460.078 82.5469 457.594 81.1406C455.156 79.6875 451.219 78.3984 445.781 77.2734C427.687 73.4766 418.64 65.7891 418.64 54.2109C418.64 47.4609 421.43 41.8359 427.008 37.3359C432.633 32.7891 439.969 30.5156 449.016 30.5156C458.672 30.5156 466.383 32.7891 472.148 37.3359C477.961 41.8828 480.867 47.7891 480.867 55.0547H460.547C460.547 52.1484 459.609 49.7578 457.734 47.8828C455.859 45.9609 452.93 45 448.945 45C445.523 45 442.875 45.7734 441 47.3203C439.125 48.8672 438.187 50.8359 438.187 53.2266C438.187 55.4766 439.242 57.3047 441.351 58.7109C443.508 60.0703 447.117 61.2656 452.18 62.2969C457.242 63.2812 461.508 64.4062 464.976 65.6719C475.711 69.6094 481.078 76.4297 481.078 86.1328C481.078 93.0703 478.101 98.6953 472.148 103.008C466.195 107.273 458.508 109.406 449.086 109.406C442.711 109.406 437.039 108.281 432.07 106.031C427.148 103.734 423.281 100.617 420.469 96.6797C417.656 92.6953 416.25 88.4062 416.25 83.8125H435.516C435.703 87.4219 437.039 90.1875 439.523 92.1094C442.008 94.0312 445.336 94.9922 449.508 94.9922C453.398 94.9922 456.328 94.2656 458.297 92.8125C460.312 91.3125 461.32 89.3672 461.32 86.9766Z" fill="#8CC84B"/>
</svg>
