<svg width="439" height="90" viewBox="0 0 439 90" fill="none" xmlns="http://www.w3.org/2000/svg">
<g filter="url(#filter0_d_44_33)">
<path fill-rule="evenodd" clip-rule="evenodd" d="M278.806 59.583C259.57 45.5794 256.567 46.6974 218.575 82C254.261 44.4162 255.392 41.4574 241.236 22.417C260.472 36.4206 263.474 35.3026 301.467 0C265.78 37.5838 264.65 40.5426 278.806 59.583ZM422.842 59.3685C420.719 59.3685 419.086 58.7926 417.945 57.6407C416.803 56.4888 416.232 54.9077 416.232 52.9088V27.8266H405.068V22.643H416.232V9.57679H422.226V22.643H434.372V27.8266H422.226V52.0166C422.226 53.5186 422.956 54.2753 424.429 54.2753H432.706V59.3798H422.831L422.842 59.3685ZM75.1558 13.8231V55.6532H82.9758V13.8231H75.1558ZM156.369 54.8058V46.7764L167.865 42.4624L156.369 38.1484V30.1189L178.767 38.3742H178.824V46.6296H178.767L156.369 54.8397V54.8171V54.8058ZM146.745 18.7579L133.571 60.588H141.391L154.565 18.7579H146.745ZM26.4667 38.1147V30.0852L4.04567 38.3293H4V46.5733H4.04567L26.4667 54.8287V46.7879L14.9708 42.4513L26.4667 38.126V38.1147ZM66.9027 37.8322C67.0283 34.5685 65.8638 31.3725 63.6377 28.9558L63.6491 28.9671C61.4116 26.6632 58.295 25.4097 55.0643 25.5452C51.6053 25.3984 48.249 26.6633 45.7603 29.0574V26.4148H37.9403V55.6642H45.7603V42.7109C45.7603 35.9801 48.2033 32.6261 53.1008 32.6261C54.7675 32.5583 56.3657 33.2472 57.4503 34.5008C58.5919 35.9011 59.1741 37.6854 59.0827 39.481V55.6529H66.9027V37.8322ZM118.115 55.6529H124.622L135.593 26.347H127.237L121.083 43.9305L114.736 26.347H108.64L102.293 43.8741L96.1395 26.347H87.783L98.7424 55.6529H105.261L111.722 38.4307L118.115 55.6529ZM215.939 60.4188C212.194 60.4188 208.907 59.6283 206.064 58.0472C203.233 56.4662 201.03 54.2527 199.454 51.3956C197.89 48.5384 197.103 45.2408 197.103 41.4801V40.5766C197.103 36.7708 197.89 33.4394 199.454 30.5822C201.018 27.725 203.199 25.5115 205.984 23.9305C208.77 22.3494 211.955 21.5589 215.551 21.5589C219.147 21.5589 222.126 22.293 224.809 23.7724C227.492 25.2518 229.592 27.3636 231.111 30.1192C232.629 32.8747 233.394 36.1045 233.394 39.8087V42.5078H203.096C203.244 46.4604 204.534 49.5548 206.966 51.7795C209.398 54.0043 212.434 55.1223 216.076 55.1223C219.261 55.1223 221.715 54.3996 223.439 52.9427C225.163 51.4859 226.476 49.758 227.389 47.7591L232.549 50.2324C231.784 51.7795 230.734 53.338 229.398 54.8852C228.051 56.4323 226.316 57.7423 224.158 58.7926C222.001 59.8429 219.261 60.3736 215.916 60.3736L215.939 60.4188ZM203.187 37.663H227.332C227.127 34.2638 225.951 31.6099 223.805 29.7013C221.647 27.8041 218.907 26.8441 215.562 26.8441C212.217 26.8441 209.386 27.7928 207.206 29.7013C205.025 31.6099 203.69 34.2638 203.176 37.663H203.187ZM289.286 22.6434V74.3889L289.298 74.4001H295.291V53.598H296.353C296.958 54.7048 297.814 55.7776 298.933 56.8279C300.052 57.8782 301.501 58.7365 303.305 59.4141C305.097 60.0917 307.289 60.4305 309.869 60.4305C313.112 60.4305 316.068 59.6738 318.717 58.1718C321.365 56.6698 323.489 54.4902 325.053 51.633C326.617 48.7758 327.404 45.3992 327.404 41.4917V40.5205C327.404 36.5679 326.605 33.1799 325.007 30.3792C323.409 27.5785 321.285 25.4102 318.625 23.8856C315.965 22.361 313.043 21.5931 309.858 21.5931C306.011 21.5931 303.008 22.3159 300.862 23.7727C298.704 25.2295 297.152 26.8783 296.193 28.7304H295.131V22.6434H289.286ZM317.644 51.5088C315.246 53.9482 312.118 55.1565 308.271 55.1565C304.481 55.1565 301.353 53.9369 298.899 51.5088C296.444 49.0808 295.211 45.6928 295.211 41.3336V40.656C295.211 36.2969 296.444 32.9089 298.899 30.4808C301.353 28.0528 304.424 26.8332 308.271 26.8332C312.118 26.8332 315.235 28.0528 317.644 30.4808C320.052 32.9089 321.251 36.2969 321.251 40.656V41.3336C321.251 45.6928 320.041 49.0808 317.644 51.5088ZM353.434 60.4188C349.689 60.4188 346.402 59.6283 343.559 58.0472C340.728 56.4662 338.525 54.2527 336.949 51.3956C335.385 48.5384 334.597 45.2408 334.597 41.4801V40.5766C334.597 36.7708 335.385 33.4394 336.949 30.5822C338.513 27.725 340.694 25.5115 343.479 23.9305C346.265 22.3494 349.45 21.5589 353.046 21.5589C356.642 21.5589 359.621 22.293 362.304 23.7724C364.987 25.2518 367.087 27.3636 368.606 30.1192C370.124 32.8747 370.889 36.1045 370.889 39.8087V42.5078H340.591C340.739 46.4604 342.029 49.5548 344.461 51.7795C346.892 54.0043 349.929 55.1223 353.571 55.1223C356.756 55.1223 359.21 54.3996 360.934 52.9427C362.658 51.4859 363.971 49.758 364.884 47.7591L370.044 50.2324C369.279 51.7795 368.229 53.338 366.893 54.8852C365.546 56.4323 363.811 57.7423 361.653 58.7926C359.496 59.8429 356.756 60.3736 353.411 60.3736L353.434 60.4188ZM340.682 37.663H364.827C364.621 34.2638 363.446 31.6099 361.299 29.7013C359.142 27.8041 356.402 26.8441 353.057 26.8441C349.712 26.8441 346.881 27.7928 344.701 29.7013C342.52 31.6099 341.184 34.2638 340.671 37.663H340.682ZM379.724 22.6433V59.3688H385.717V36.9857C385.717 33.8801 386.539 31.5875 388.183 30.1081C389.827 28.6287 391.996 27.8947 394.679 27.8947H399.462V22.4852H395.056C392.829 22.4852 391.037 22.8579 389.667 23.6145C388.297 24.3712 387.293 25.5457 386.63 27.1493H385.569V22.6433H379.724Z" fill="url(#paint0_linear_44_33)"/>
</g>
<defs>
<filter id="filter0_d_44_33" x="0" y="0" width="438.372" height="90" filterUnits="userSpaceOnUse" color-interpolation-filters="sRGB">
<feFlood flood-opacity="0" result="BackgroundImageFix"/>
<feColorMatrix in="SourceAlpha" type="matrix" values="0 0 0 0 0 0 0 0 0 0 0 0 0 0 0 0 0 0 127 0" result="hardAlpha"/>
<feOffset dy="4"/>
<feGaussianBlur stdDeviation="2"/>
<feComposite in2="hardAlpha" operator="out"/>
<feColorMatrix type="matrix" values="0 0 0 0 0 0 0 0 0 0 0 0 0 0 0 0 0 0 0.25 0"/>
<feBlend mode="normal" in2="BackgroundImageFix" result="effect1_dropShadow_44_33"/>
<feBlend mode="normal" in="SourceGraphic" in2="effect1_dropShadow_44_33" result="shape"/>
</filter>
<linearGradient id="paint0_linear_44_33" x1="423.639" y1="38.4082" x2="0.979428" y2="39.2116" gradientUnits="userSpaceOnUse">
<stop stop-color="#859398"/>
<stop offset="0.39918" stop-color="#D1F593"/>
<stop offset="1" stop-color="#859398"/>
</linearGradient>
</defs>
</svg>
